<svg width="256" height="256" viewBox="0 0 256 256" fill="none" xmlns="http://www.w3.org/2000/svg">
<rect width="256" height="256" fill="white"/>
<path d="M23.4984 176.548C23.6571 176.548 23.8951 176.628 24.2125 176.786C24.5299 176.945 24.9663 177.064 25.5218 177.143C26.0772 177.223 26.5533 177.262 26.95 177.262C27.9816 177.262 28.9337 176.747 29.8066 175.715C30.6794 174.684 31.3142 173.533 31.7109 172.263C32.5044 170.121 33.8533 164.051 35.7577 154.053C37.662 144.055 39.487 134.533 41.2327 125.488C42.9784 116.442 43.8512 111.88 43.8512 111.8V111.443H38.2571C34.5278 111.443 32.5441 111.364 32.306 111.205C31.9886 110.967 31.8299 110.57 31.8299 110.015L32.6631 106.682C32.8218 106.285 33.1392 106.087 33.6153 106.087C34.0914 106.087 35.956 106.047 39.2093 105.968C43.018 105.968 44.9224 105.928 44.9224 105.849C44.9224 105.69 45.2795 103.707 45.9936 99.898C46.7077 96.0893 47.1838 93.7882 47.4219 92.9947C50.3577 79.9023 56.1501 73.356 64.7991 73.356C67.735 73.5147 70.1551 74.3876 72.0594 75.9745C73.9638 77.5615 74.916 79.6642 74.916 82.2827C74.916 85.1392 74.0828 87.2023 72.4165 88.4718C70.7502 89.7414 69.0839 90.4159 67.4176 90.4952C63.9263 90.4952 62.1806 88.8289 62.1806 85.4963C62.1806 83.9887 62.617 82.6794 63.4898 81.5686C64.3627 80.4577 65.3148 79.6245 66.3464 79.0691L67.4176 78.474C66.148 77.9979 64.9578 77.7598 63.8469 77.7598C62.8947 77.7598 61.9822 78.1566 61.1094 78.9501C60.2366 79.7436 59.6415 80.8544 59.3241 82.2827C58.7686 84.5838 58.1338 87.6784 57.4197 91.5664C56.7056 95.4545 56.0708 98.7474 55.5154 101.445C54.9599 104.143 54.6822 105.571 54.6822 105.73C54.6822 105.889 56.8643 105.968 61.2284 105.968C64.7991 105.968 66.8621 106.008 67.4176 106.087C67.973 106.166 68.4094 106.405 68.7268 106.801C68.8062 107.119 68.7268 107.793 68.4888 108.825C68.2507 109.856 68.0524 110.491 67.8937 110.729C67.735 111.126 67.3779 111.324 66.8225 111.324C66.267 111.324 64.1246 111.364 60.3953 111.443H53.73L50.9925 125.964C47.1838 145.642 44.5256 157.941 43.018 162.861C40.8756 169.605 38.0984 174.604 34.6865 177.857C31.7506 180.397 28.8544 181.666 25.9979 181.666C23.4587 181.666 21.1576 180.912 19.0946 179.405C17.0315 177.897 16 175.755 16 172.978C16 170.042 16.8332 167.899 18.4995 166.55C20.1658 165.201 21.8321 164.527 23.4984 164.527C26.9897 164.527 28.7354 166.193 28.7354 169.526C28.7354 171.034 28.299 172.343 27.4261 173.454C26.5533 174.565 25.6011 175.398 24.5696 175.953L23.4984 176.548Z" fill="black"/>
<path d="M86.104 127.511C86.104 122.036 86.5007 116.839 87.2942 111.919C88.0877 107 89.0002 102.754 90.0317 99.1838C91.0633 95.6131 92.5312 92.1218 94.4356 88.7099C96.3399 85.2979 97.8475 82.6397 98.9584 80.7354C100.069 78.831 101.736 76.768 103.957 74.5462C106.179 72.3245 107.488 70.9756 107.885 70.4995C108.282 70.0234 109.274 69.1902 110.861 68H112.408H112.884C113.995 68 114.55 68.3571 114.55 69.0712C114.55 69.3092 113.876 70.1424 112.527 71.5707C111.178 72.9989 109.551 75.1017 107.647 77.8788C105.743 80.656 103.799 84.068 101.815 88.1147C99.8312 92.1615 98.1649 97.6365 96.816 104.54C95.4671 111.443 94.7926 119.1 94.7926 127.511C94.7926 135.922 95.4671 143.539 96.816 150.363C98.1649 157.187 99.7916 162.702 101.696 166.907C103.6 171.113 105.544 174.525 107.528 177.143C109.512 179.762 111.178 181.865 112.527 183.451C113.876 185.038 114.55 185.872 114.55 185.951C114.55 186.665 113.955 187.022 112.765 187.022H112.408H110.861L107.528 184.166C100.069 177.421 94.6339 169.01 91.222 158.933C87.81 148.856 86.104 138.382 86.104 127.511Z" fill="black"/>
<path d="M125.977 105.254C124.469 105.254 123.716 104.936 123.716 104.302C123.716 103.905 124.35 101.683 125.62 97.6365C126.89 93.5897 128.238 89.5826 129.667 85.6152L131.69 79.7831C132.087 78.3549 132.603 77.3234 133.237 76.6886H188.94H199.652C202.191 76.6886 203.698 76.7282 204.175 76.8076C204.651 76.8869 204.928 77.244 205.008 77.8788C205.008 78.3549 204.333 82.8777 202.984 91.4473C201.635 100.017 200.882 104.341 200.723 104.421C200.723 104.976 199.969 105.254 198.461 105.254C197.747 105.254 197.271 105.254 197.033 105.254C196.795 105.254 196.557 105.056 196.319 104.659L196.081 104.302C196.081 103.826 196.319 102.04 196.795 98.9457C197.271 95.8511 197.509 93.431 197.509 91.6854C197.509 88.9082 196.994 86.8055 195.962 85.3772C194.931 83.9489 192.748 82.9571 189.416 82.4016C189.019 82.3223 186.718 82.2429 182.513 82.1636C178.863 82.1636 176.561 82.2033 175.609 82.2826C174.657 82.362 173.943 82.6794 173.467 83.2348C173.387 83.3141 170.571 94.3832 165.016 116.442C159.462 138.501 156.685 149.729 156.685 150.125C156.685 151.077 160.176 151.633 167.159 151.792C169.698 151.792 171.324 151.831 172.039 151.911C172.753 151.99 173.11 152.347 173.11 152.982C173.11 153.379 172.991 153.934 172.753 154.648C172.435 156.076 172.078 156.91 171.682 157.148L171.443 157.267C171.205 157.267 170.928 157.267 170.61 157.267C170.214 157.267 168.151 157.227 164.421 157.148C160.692 157.068 155.336 157.029 148.353 157.029C138.117 157.029 131.611 157.108 128.834 157.267H127.048C126.572 156.79 126.334 156.433 126.334 156.195C126.334 155.957 126.413 155.243 126.572 154.053C126.89 153.021 127.286 152.268 127.762 151.792H131.095H132.404C138.752 151.792 142.521 151.434 143.711 150.72C143.791 150.641 143.87 150.601 143.949 150.601C144.346 150.363 144.743 149.57 145.14 148.221C145.536 146.872 147.123 140.643 149.9 129.534C151.249 124.139 152.36 119.735 153.233 116.323C158.787 94.5022 161.565 83.3538 161.565 82.8777C161.565 82.481 160.414 82.2826 158.113 82.2826H154.423C149.107 82.2826 145.616 82.5207 143.949 82.9967C140.379 83.7902 137.601 85.4169 135.618 87.8766C133.634 90.3364 131.492 94.9386 129.191 101.683C128.635 103.429 128.238 104.46 128 104.778C127.762 105.095 127.207 105.254 126.334 105.254H125.977Z" fill="black"/>
<path d="M212.149 68.119L212.625 68C213.022 68 213.418 68 213.815 68H215.243L218.576 70.8565C226.035 77.6011 231.47 86.012 234.882 96.0892C238.294 106.166 240 116.64 240 127.511C240 132.907 239.603 138.104 238.81 143.103C238.016 148.102 237.104 152.347 236.072 155.838C235.041 159.33 233.573 162.821 231.668 166.312C229.764 169.804 228.256 172.462 227.146 174.287C226.035 176.112 224.408 178.135 222.266 180.357C220.123 182.579 218.854 183.888 218.457 184.285C218.06 184.681 217.148 185.435 215.719 186.546C215.481 186.784 215.323 186.943 215.243 187.022H213.815C213.18 187.022 212.744 187.022 212.506 187.022C212.268 187.022 212.069 186.903 211.911 186.665C211.752 186.427 211.633 186.07 211.554 185.594C211.633 185.515 212.069 184.999 212.863 184.047C225.162 171.272 231.311 152.426 231.311 127.511C231.311 102.596 225.162 83.7506 212.863 70.9756C212.069 70.0234 211.633 69.5076 211.554 69.4283C211.554 68.7935 211.752 68.3571 212.149 68.119Z" fill="black"/>
</svg>
